HIERARCHY
ROOT Hips
{
	OFFSET 0.000000 0.000000 0.000000
	CHANNELS 6 Xposition Yposition Zposition Zrotation Yrotation Xrotation 
	JOINT LeftUpLeg_virtual
	{
		OFFSET 0.000000 0.000000 0.000000
		CHANNELS 3 Zrotation Yrotation Xrotation
		JOINT LeftUpLeg
		{
			OFFSET 10.205400 -3.823500 0.155100
			CHANNELS 3 Zrotation Yrotation Xrotation
			JOINT LeftLeg
			{
				OFFSET 0.708757 -12.982077 0.567790
				CHANNELS 3 Zrotation Yrotation Xrotation
				JOINT LeftFoot
				{
					OFFSET -0.708756 -10.717838 -2.184338
					CHANNELS 3 Zrotation Yrotation Xrotation
					JOINT LeftToeBase
					{
						OFFSET 0.108149 -7.191104 7.560241
						CHANNELS 3 Zrotation Yrotation Xrotation
						End Site
						{
							OFFSET 0.000000 0.000000 0.000000
						}
					}
				}
			}
		}
	}
	JOINT RightUpLeg_virtual
	{
		OFFSET 0.000000 0.000000 0.000000
		CHANNELS 3 Zrotation Yrotation Xrotation
		JOINT RightUpLeg
		{
			OFFSET -10.205400 -3.823500 0.005500
			CHANNELS 3 Zrotation Yrotation Xrotation
			JOINT RightLeg
			{
				OFFSET -0.708756 -12.982134 0.610632
				CHANNELS 3 Zrotation Yrotation Xrotation
				JOINT RightFoot
				{
					OFFSET 0.708754 -10.717769 -1.945823
					CHANNELS 3 Zrotation Yrotation Xrotation
					JOINT RightToeBase
					{
						OFFSET -0.108140 -7.191069 7.372968
						CHANNELS 3 Zrotation Yrotation Xrotation
						End Site
						{
							OFFSET 0.000000 0.000000 0.000000
						}
					}
				}
			}
		}
	}
	JOINT Spine_virtual
	{
		OFFSET 0.000000 0.000000 0.000000
		CHANNELS 3 Zrotation Yrotation Xrotation
		JOINT Spine
		{
			OFFSET 0.000000 6.876099 0.125700
			CHANNELS 3 Zrotation Yrotation Xrotation
			JOINT Spine1
			{
				OFFSET 0.000000 8.022060 0.146608
				CHANNELS 3 Zrotation Yrotation Xrotation
				JOINT Spine2
				{
					OFFSET 0.000000 9.168068 0.167552
					CHANNELS 3 Zrotation Yrotation Xrotation
					JOINT Neck_virtual
					{
						OFFSET 0.000000 0.000000 0.000000
						CHANNELS 3 Zrotation Yrotation Xrotation
						JOINT Neck
						{
							OFFSET 0.000000 10.314075 0.188496
							CHANNELS 3 Zrotation Yrotation Xrotation
							JOINT Head
							{
								OFFSET 0.000000 7.643700 -2.377400
								CHANNELS 3 Zrotation Yrotation Xrotation
								End Site
								{
									OFFSET 0.000000 0.000000 0.000000
								}
							}
						}
					}
					JOINT LeftShoulder_virtual
					{
						OFFSET 0.000000 0.000000 0.000000
						CHANNELS 3 Zrotation Yrotation Xrotation
						JOINT LeftShoulder
						{
							OFFSET 4.392200 8.824978 0.174984
							CHANNELS 3 Zrotation Yrotation Xrotation
							JOINT LeftArm
							{
								OFFSET 8.771219 -2.981674 -0.026999
								CHANNELS 3 Zrotation Yrotation Xrotation
								JOINT LeftForeArm
								{
									OFFSET 8.512804 0.000000 -0.000000
									CHANNELS 3 Zrotation Yrotation Xrotation
									JOINT LeftHand
									{
										OFFSET 18.484802 0.000000 -0.000000
										CHANNELS 3 Zrotation Yrotation Xrotation
										End Site
										{
											OFFSET 0.000000 0.000000 0.000000
										}
									}
								}
							}
						}
					}
					JOINT RightShoulder_virtual
					{
						OFFSET 0.000000 0.000000 0.000000
						CHANNELS 3 Zrotation Yrotation Xrotation
						JOINT RightShoulder
						{
							OFFSET -4.392200 8.824993 0.141379
							CHANNELS 3 Zrotation Yrotation Xrotation
							JOINT RightArm
							{
								OFFSET -8.771282 -2.981682 -0.094208
								CHANNELS 3 Zrotation Yrotation Xrotation
								JOINT RightForeArm
								{
									OFFSET -8.494598 0.000000 0.000000
									CHANNELS 3 Zrotation Yrotation Xrotation
									JOINT RightHand
									{
										OFFSET -18.483803 0.000000 0.000001
										CHANNELS 3 Zrotation Yrotation Xrotation
										End Site
										{
											OFFSET 0.000000 0.000000 0.000000
										}
									}
								}
							}
						}
					}
				}
			}
		}
	}
}
MOTION
Frames: 8
Frame Time: 0.033333
0.013982 35.973454 8.677174 -179.944762 4.322280 -179.874972 -3.565030 -1.934503 9.753431 -14.116178 5.733861 -15.866755 18.365120 6.389463 22.391600 0.073149 -4.125368 3.503079 0.000000 0.000000 0.000000 0.714276 0.410075 8.595173 1.331489 6.078462 -12.425818 -8.858003 0.810852 15.550978 8.312998 0.842436 5.719320 0.000000 0.000000 0.000000 0.831128 1.311952 -2.626666 -3.647917 2.158946 -6.113509 0.350364 -3.845349 3.246247 0.029025 0.038681 0.011933 0.038327 -2.298944 5.749223 -0.437582 1.584198 14.394629 0.000000 0.000000 0.000000 1.465493 -1.521579 2.586555 -8.917031 1.170893 -6.562579 0.869075 10.953140 -39.101470 -0.669887 -43.320967 -2.175458 0.000000 0.000000 0.000000 -1.975257 -0.802917 2.148196 17.353962 -3.991687 -13.134621 10.450890 -14.215809 -46.694298 -0.082056 30.514225 2.561434 0.000000 0.000000 0.000000 
0.022074 35.970909 8.639709 -179.922264 4.314288 -179.894315 -3.678913 -2.054185 9.902290 -13.878490 5.630537 -15.699760 18.303474 6.422390 22.501008 -0.141811 -4.312769 3.186989 0.000000 0.000000 0.000000 0.811385 0.391038 8.685970 1.245977 5.953484 -12.323081 -9.043643 0.674560 15.687809 8.111645 0.672667 5.587936 0.000000 0.000000 0.000000 0.825650 1.263371 -2.641558 -3.651214 2.118462 -6.106843 0.342989 -3.880570 3.244216 -0.000043 -0.000524 0.004059 0.051192 -2.303230 5.757312 -0.450712 1.559772 14.410883 0.000000 0.000000 0.000000 1.509406 -1.495186 2.544260 -8.948297 1.220769 -6.425505 0.871548 11.039899 -39.072463 -0.662994 -43.307716 -2.193606 0.000000 0.000000 0.000000 -1.937345 -0.754798 2.188968 17.347736 -3.951799 -13.193771 10.518968 -14.268360 -46.666479 -0.090857 30.494117 2.596035 0.000000 0.000000 0.000000 
0.031304 35.968430 8.589870 -179.931840 4.314960 -179.915543 -3.706022 -2.064646 9.946664 -13.850147 5.501832 -15.687042 18.337832 6.406972 22.582292 -0.132098 -4.304894 3.124077 0.000000 0.000000 0.000000 0.796594 0.395330 8.722847 1.234796 5.860066 -12.278631 -8.994353 0.633979 15.746361 8.110593 0.697851 5.509527 0.000000 0.000000 0.000000 0.880773 1.209184 -2.639438 -3.746089 2.094356 -6.108000 0.300954 -3.888936 3.270710 -0.043375 -0.017551 0.005511 0.120744 -2.393418 5.804367 -0.384618 1.568052 14.495316 0.000000 0.000000 0.000000 1.595113 -1.449736 2.527694 -8.944327 1.338963 -6.263037 0.723358 11.128345 -39.055906 -0.599207 -43.427381 -2.275838 0.000000 0.000000 0.000000 -1.863469 -0.690433 2.271088 17.343657 -3.923618 -13.220705 10.556274 -14.286639 -46.864786 -0.110747 30.502423 2.584795 0.000000 0.000000 0.000000 
0.044420 35.966164 8.538875 -179.909901 4.108564 -179.907866 -3.685064 -2.210291 9.986995 -13.820195 5.433290 -15.664370 18.333846 6.286697 22.611809 -0.071813 -4.262917 3.078108 0.000000 0.000000 0.000000 0.833223 0.273170 8.768336 1.234595 5.735348 -12.238747 -8.955214 0.531886 15.810341 8.136635 0.708316 5.412729 0.000000 0.000000 0.000000 0.796661 1.211246 -2.672453 -3.709620 2.124257 -6.143701 0.351316 -3.869452 3.293880 0.004580 0.005403 0.013131 0.045744 -2.289404 5.835904 -0.376272 1.502814 14.604529 0.000000 0.000000 0.000000 1.507395 -1.520592 2.593952 -8.981832 1.328286 -6.415300 0.697013 11.127518 -38.933089 -0.659194 -43.514807 -2.244671 0.000000 0.000000 0.000000 -1.957896 -0.773417 2.250152 17.351657 -4.056493 -13.250679 10.593263 -14.324146 -46.921156 -0.158642 30.491805 2.617655 0.000000 0.000000 0.000000 
0.056108 35.963390 8.491917 -179.918685 3.977699 -179.889110 -3.692262 -2.260536 10.019359 -13.800466 5.327378 -15.645721 18.325355 6.214234 22.618569 -0.029240 -4.242830 3.058028 0.000000 0.000000 0.000000 0.839489 0.245308 8.785521 1.227972 5.593341 -12.189901 -8.909437 0.424731 15.905118 8.130924 0.722066 5.294010 0.000000 0.000000 0.000000 0.784943 1.189066 -2.737999 -3.759332 2.151185 -6.209935 0.350565 -3.845222 3.316179 0.000195 0.028171 0.020275 0.056626 -2.307699 5.865632 -0.303843 1.477842 14.716983 0.000000 0.000000 0.000000 1.507716 -1.542894 2.639384 -8.986133 1.387156 -6.566366 0.629685 11.131088 -38.865856 -0.764603 -43.675344 -2.172682 0.000000 0.000000 0.000000 -1.965118 -0.806381 2.262255 17.344741 -4.154538 -13.197031 10.652159 -14.362826 -47.072643 -0.254397 30.502959 2.608080 0.000000 0.000000 0.000000 
0.069199 35.960213 8.452628 -179.963054 3.783044 -179.906841 -3.716091 -2.326827 10.052665 -13.775340 5.199706 -15.595808 18.291732 6.177215 22.610489 -0.007302 -4.247620 3.035643 0.000000 0.000000 0.000000 0.832800 0.189649 8.811525 1.226517 5.426652 -12.119921 -8.849174 0.332556 16.011946 8.130726 0.739035 5.173169 0.000000 0.000000 0.000000 0.779402 1.152552 -2.758034 -3.821017 2.166771 -6.263071 0.334378 -3.832647 3.355968 -0.040463 0.043413 0.021832 0.131824 -2.381275 5.919602 -0.183153 1.493741 14.868057 0.000000 0.000000 0.000000 1.553886 -1.543676 2.701205 -8.963243 1.479873 -6.671453 0.504243 11.081759 -38.853620 -0.770153 -43.848715 -2.189025 0.000000 0.000000 0.000000 -1.905928 -0.813108 2.264957 17.361726 -4.198236 -13.128330 10.635320 -14.435577 -47.086341 -0.382214 30.497744 2.608257 0.000000 0.000000 0.000000 
0.081513 35.957439 8.418147 -179.969174 3.541502 -179.905571 -3.691786 -2.418085 10.071875 -13.756928 5.077884 -15.539355 18.300589 6.118306 22.594833 0.033438 -4.240519 3.040034 0.000000 0.000000 0.000000 0.856569 0.095180 8.839943 1.222141 5.274270 -12.043834 -8.812290 0.255448 16.116277 8.101919 0.743754 5.080562 0.000000 0.000000 0.000000 0.776704 1.081709 -2.788977 -3.925317 2.150633 -6.331910 0.468466 -3.861614 3.394886 -0.014214 0.017567 0.010188 0.051555 -2.289626 5.976381 -0.097215 1.463167 15.022588 0.000000 0.000000 0.000000 1.459827 -1.546352 2.725549 -8.975640 1.564306 -6.577181 0.579234 11.085715 -38.832825 -0.753256 -43.950526 -2.251201 0.000000 0.000000 0.000000 -1.997526 -0.797951 2.324745 17.387826 -4.203143 -13.186397 10.693787 -14.398527 -47.177008 -0.410573 30.497976 2.688870 0.000000 0.000000 0.000000 
0.094072 35.954826 8.385321 -179.976168 3.347174 -179.886200 -3.701610 -2.471290 10.064863 -13.681362 4.935034 -15.488661 18.204069 6.156214 22.634726 0.017654 -4.258339 3.018315 0.000000 0.000000 0.000000 0.878339 0.065245 8.832106 1.251582 5.156573 -11.986903 -8.765988 0.212691 16.236958 8.060889 0.739448 4.983041 0.000000 0.000000 0.000000 0.801764 1.045628 -2.822969 -3.956875 2.164047 -6.401619 0.344670 -3.852048 3.455791 -0.007929 0.030269 0.014143 0.109903 -2.366467 6.046787 -0.035272 1.450403 15.164441 0.000000 0.000000 0.000000 1.545850 -1.573879 2.794268 -8.953402 1.628458 -6.721152 0.517299 11.083786 -38.807912 -0.796706 -44.123370 -2.250338 0.000000 0.000000 0.000000 -1.910709 -0.824226 2.376055 17.406814 -4.234287 -13.195680 10.726369 -14.360674 -47.213211 -0.489765 30.485361 2.709498 0.000000 0.000000 0.000000 
